<?xml version="1.0" standalone="no"?>
<!DOCTYPE svg PUBLIC "-//W3C//DTD SVG 20010904//EN"
 "http://www.w3.org/TR/2001/REC-SVG-20010904/DTD/svg10.dtd">
<svg version="1.0" xmlns="http://www.w3.org/2000/svg"
 width="260.000000pt" height="260.000000pt" viewBox="0 0 260.000000 260.000000"
 preserveAspectRatio="xMidYMid meet">
<metadata>
Created by potrace 1.11, written by Peter Selinger 2001-2013
</metadata>
<g transform="translate(0.000000,260.000000) scale(0.100000,-0.100000)"
fill="#000000" stroke="none">
<path d="M1375 1432 l-30 -7 0 -125 0 -125 30 0 c27 0 30 3 33 36 3 34 6 37
40 43 52 8 80 31 88 71 7 38 -11 76 -44 94 -26 14 -83 20 -117 13z m83 -68
c15 -27 3 -54 -24 -54 -21 0 -24 5 -24 35 0 28 4 35 20 35 10 0 23 -7 28 -16z"/>
<path d="M1138 1418 c-20 -15 -82 -213 -74 -233 3 -9 18 -15 35 -15 25 0 30 5
36 30 6 26 11 30 41 30 30 0 37 -4 45 -30 9 -24 17 -30 39 -30 16 0 31 3 34 8
6 9 -53 223 -66 240 -6 6 -25 12 -42 12 -18 0 -39 -6 -48 -12z m56 -90 c10
-39 7 -48 -18 -48 -23 0 -24 2 -13 35 12 40 22 44 31 13z"/>
</g>
</svg>
